<?xml version="1.0" encoding="iso-8859-1"?>
<!-- Uploaded to: SVG Repo, www.svgrepo.com, Generator: SVG Repo Mixer Tools -->
<svg height="800px" width="800px" version="1.1" id="Layer_1" xmlns="http://www.w3.org/2000/svg" xmlns:xlink="http://www.w3.org/1999/xlink" 
	 viewBox="0 0 512 512" xml:space="preserve">
<path style="fill:#FF738D;" d="M442.276,160.943c-0.972-5.597-2.175-11.152-3.647-16.636C416.513,61.91,341.414,4.364,256,4.364
	S95.488,61.91,73.348,144.391l-0.132,0.483c-1.405,5.297-2.557,10.663-3.495,16.073v25.235h372.461v-25.235l-0.003-0.004H442.276z"
	/>
<g>
	<path style="fill:#008678;" d="M48,271.014c-26.509,0-48,21.491-48,48l0,0c0,26.509,21.491,48,48,48h7.273v-96H48z"/>
	<path style="fill:#008678;" d="M464,271.014h-7.273v96H464c26.509,0,48-21.491,48-48l0,0C512,292.503,490.511,271.014,464,271.014z
		"/>
</g>
<path style="fill:#00C279;" d="M459.263,181.369l-40.353-48.524l-40.727,48.973l-40.727-48.973l-40.727,48.973L256,132.845
	l-40.727,48.973l-40.727-48.973l-40.727,48.973l-40.727-48.973l-40.356,48.527l-0.029,0.553c-0.22,3.817-0.342,7.658-0.342,11.53
	v171.023c0,79.065,64.095,143.159,143.159,143.159h120.954c79.065,0,143.159-64.095,143.159-143.159V193.455
	c0-3.872-0.122-7.715-0.343-11.532L459.263,181.369z"/>
<g>
	<circle style="fill:#20272E;" cx="158.851" cy="315.607" r="18.177"/>
	<circle style="fill:#20272E;" cx="353.149" cy="315.607" r="18.177"/>
	<path style="opacity:0.3;fill:#20272E;enable-background:new    ;" d="M438.63,144.307c-2.397-8.932-5.42-17.572-9.008-25.879
		l-10.713-12.88l-40.727,48.973l-40.727-48.973l-40.727,48.973L256,105.548l-40.727,48.973l-40.727-48.973l-40.727,48.973
		l-40.727-48.973l-10.692,12.857c-3.606,8.34-6.643,17.015-9.052,25.988l-0.132,0.483c-1.405,5.297-2.557,10.663-3.495,16.073
		l23.372-28.103l40.727,48.973l40.727-48.973l40.727,48.973L256,132.845l40.727,48.973l40.727-48.973l40.727,48.973l40.727-48.973
		l23.366,28.097C441.305,155.345,440.1,149.791,438.63,144.307z"/>
	<path style="fill:#20272E;" d="M192,350.545c0,17.802,7.274,33.903,19.005,45.504c9.83-8.592,26.313-14.23,44.995-14.23
		s35.164,5.638,44.995,14.23C312.726,384.448,320,368.348,320,350.545H192z"/>
</g>
<path style="fill:#FF738D;" d="M300.995,396.049c-9.83-8.592-26.313-14.23-44.995-14.23s-35.164,5.638-44.995,14.23
	c11.562,11.433,27.452,18.496,44.995,18.496S289.434,407.482,300.995,396.049z"/>
<path style="opacity:0.3;fill:#20272E;enable-background:new    ;" d="M464,271.014h-4.364v-77.559
	c0-3.872-0.121-7.715-0.343-11.532l-0.031-0.556l-16.986-20.426c-0.972-5.597-2.175-11.152-3.647-16.636
	c-0.55-2.048-1.142-4.076-1.756-6.093c-0.087-0.288-0.173-0.576-0.262-0.863c-0.601-1.936-1.232-3.856-1.891-5.763
	c-0.108-0.313-0.217-0.624-0.326-0.935c-0.679-1.933-1.385-3.852-2.122-5.753c-0.071-0.182-0.144-0.361-0.215-0.541
	C403.988,52.772,334.336,4.364,256,4.364v503.273h60.477c78.217,0,141.773-62.73,143.127-140.623H464c26.509,0,48-21.491,48-48l0,0
	C512,292.503,490.511,271.014,464,271.014z"/>
</svg>